<svg xmlns="http://www.w3.org/2000/svg" viewBox="0 0 64 64">
  <defs>
    <linearGradient id="bg" x1="10" y1="8" x2="56" y2="58" gradientUnits="userSpaceOnUse">
      <stop stop-color="#fff1f6"/>
      <stop offset="1" stop-color="#ffe0ec"/>
    </linearGradient>
    <linearGradient id="mark" x1="15" y1="14" x2="50" y2="52" gradientUnits="userSpaceOnUse">
      <stop stop-color="#e8327b"/>
      <stop offset="1" stop-color="#006c73"/>
    </linearGradient>
  </defs>
  <rect width="64" height="64" rx="16" fill="url(#bg)"/>
  <rect x="4" y="4" width="56" height="56" rx="14" fill="none" stroke="#e8327b" stroke-opacity=".28" stroke-width="2"/>
  <path d="M17 30.5 32 17l15 13.5v17a3.5 3.5 0 0 1-3.5 3.5h-23a3.5 3.5 0 0 1-3.5-3.5z" fill="#fff9fb"/>
  <path d="M15 31.5 32 16l17 15.5" fill="none" stroke="url(#mark)" stroke-width="5" stroke-linecap="round" stroke-linejoin="round"/>
  <circle cx="24.5" cy="34" r="3.5" fill="#8a4c2c"/>
  <circle cx="31" cy="30.5" r="3.7" fill="#8a4c2c"/>
  <circle cx="37.5" cy="34" r="3.5" fill="#8a4c2c"/>
  <path d="M23.5 44c0-5 4-8.5 8.5-8.5s8.5 3.5 8.5 8.5c0 2.8-2.1 4-4.2 3.2a11.5 11.5 0 0 0-8.6 0c-2.1.8-4.2-.4-4.2-3.2z" fill="#8a4c2c"/>
  <path d="M49 17.5c0 4.5-6.4 8-6.4 8s-6.4-3.5-6.4-8a4 4 0 0 1 6.4-3.2 4 4 0 0 1 6.4 3.2z" fill="#e8327b"/>
</svg>
